<svg width="19" height="18" viewBox="0 0 19 18" fill="none" xmlns="http://www.w3.org/2000/svg">
<path d="M5.45576 16.9598L0.93104 17.9655L1.93672 13.4408C1.27442 12.202 0.928925 10.8185 0.93104 9.41378C0.93104 4.69067 4.75965 0.862061 9.48276 0.862061C14.2059 0.862061 18.0345 4.69067 18.0345 9.41378C18.0345 14.1369 14.2059 17.9655 9.48276 17.9655C8.07802 17.9676 6.69457 17.6221 5.45576 16.9598ZM5.70375 15.1528L6.26218 15.4522C7.25294 15.9816 8.3594 16.2575 9.48276 16.2552C10.8359 16.2552 12.1586 15.8539 13.2836 15.1022C14.4087 14.3504 15.2856 13.282 15.8034 12.0319C16.3212 10.7818 16.4567 9.40619 16.1927 8.07909C15.9287 6.752 15.2771 5.53298 14.3203 4.5762C13.3636 3.61941 12.1445 2.96784 10.8174 2.70386C9.49035 2.43988 8.11478 2.57537 6.86468 3.09317C5.61458 3.61098 4.5461 4.48786 3.79436 5.61292C3.04262 6.73797 2.64138 8.06068 2.64138 9.41378C2.64138 10.5546 2.91931 11.6526 3.44525 12.6344L3.7437 13.1928L3.18356 15.713L5.70375 15.1528Z" fill="white"/>
<circle cx="14.8276" cy="4.06896" r="3.2069" fill="#FA0E0E"/>
</svg>
