<svg width="16" height="22" viewBox="0 0 16 22" fill="none" xmlns="http://www.w3.org/2000/svg">
<path d="M13.2617 9.43632C13.2617 8.01219 12.7052 6.64639 11.7146 5.63937C10.7241 4.63236 9.38057 4.06663 7.97971 4.06663C6.57885 4.06663 5.23536 4.63236 4.24481 5.63937C3.25425 6.64639 2.69776 8.01219 2.69776 9.43632V16.5959H13.2617V9.43632ZM15.0223 17.1928L15.3744 17.6698C15.4235 17.7363 15.4533 17.8154 15.4607 17.8981C15.468 17.9809 15.4526 18.0641 15.416 18.1384C15.3794 18.2128 15.3232 18.2753 15.2537 18.319C15.1842 18.3627 15.104 18.3858 15.0223 18.3858H0.937111C0.855367 18.3858 0.775239 18.3627 0.705704 18.319C0.636169 18.2753 0.579974 18.2128 0.543418 18.1384C0.506861 18.0641 0.491386 17.9809 0.498727 17.8981C0.506068 17.8154 0.535935 17.7363 0.584981 17.6698L0.937111 17.1928V9.43632C0.937111 7.53748 1.6791 5.71641 2.99984 4.37373C4.32058 3.03104 6.11189 2.27673 7.97971 2.27673C9.84752 2.27673 11.6388 3.03104 12.9596 4.37373C14.2803 5.71641 15.0223 7.53748 15.0223 9.43632V17.1928ZM5.7789 19.2807H10.1805C10.1805 19.8741 9.94865 20.4432 9.53592 20.8628C9.12318 21.2824 8.5634 21.5181 7.97971 21.5181C7.39602 21.5181 6.83623 21.2824 6.4235 20.8628C6.01077 20.4432 5.7789 19.8741 5.7789 19.2807Z" fill="white"/>
<circle cx="12.7587" cy="4.06896" r="3.2069" fill="#FA0E0E"/>
</svg>
